<?xml version="1.0" standalone="no"?>
<!DOCTYPE svg PUBLIC "-//W3C//DTD SVG 20010904//EN"
 "http://www.w3.org/TR/2001/REC-SVG-20010904/DTD/svg10.dtd">
<svg version="1.0" xmlns="http://www.w3.org/2000/svg"
 width="1280.000000pt" height="286.000000pt" viewBox="0 0 1280.000000 286.000000"
 preserveAspectRatio="xMidYMid meet">

<g transform="translate(0.000000,286.000000) scale(0.100000,-0.100000)"
fill="#000000" stroke="none">
<path d="M4888 2602 l-168 -2 0 -185 0 -185 185 0 185 0 0 184 c0 167 -2 184
-17 187 -10 2 -93 3 -185 1z"/>
<path d="M7674 2587 c-2 -7 -3 -89 -2 -182 l3 -170 188 -3 187 -2 0 185 0 185
-185 0 c-142 0 -187 -3 -191 -13z"/>
<path d="M3620 1797 c0 -668 2 -770 16 -817 20 -67 50 -115 102 -162 91 -82
118 -87 477 -88 l300 -1 3 185 2 186 -265 0 -265 0 0 335 0 335 265 0 265 0 0
185 0 185 -265 0 -265 0 0 210 0 210 -185 0 -185 0 0 -763z"/>
<path d="M10214 2478 c-5 -7 73 -147 276 -493 114 -195 632 -1089 684 -1182
l41 -72 159 -3 159 -3 25 40 c26 41 162 274 327 560 105 182 158 274 310 535
59 102 125 214 145 250 82 144 193 336 202 347 5 7 8 16 5 20 -3 4 -101 7
-219 5 l-213 -3 -16 -27 c-8 -15 -112 -196 -231 -402 -119 -206 -258 -447
-309 -535 -51 -88 -109 -189 -130 -225 -20 -36 -42 -65 -49 -65 -7 0 -29 29
-49 65 -21 36 -89 155 -153 265 -328 568 -415 719 -471 817 l-62 107 -213 3
c-118 2 -216 0 -218 -4z"/>
<path d="M8500 2471 c-119 -37 -214 -137 -245 -258 -14 -53 -15 -139 -13 -640
l3 -578 26 -55 c31 -67 79 -123 132 -157 87 -55 63 -53 846 -53 399 0 732 0
739 0 9 0 12 44 12 185 l0 185 -690 0 -690 0 0 500 0 500 688 2 687 3 3 188 2
187 -737 -1 c-406 0 -749 -4 -763 -8z"/>
<path d="M560 2126 c-93 -25 -181 -103 -228 -204 l-27 -57 0 -435 0 -435 27
-58 c33 -69 106 -144 173 -178 l50 -24 465 0 465 0 56 28 c69 33 132 99 167
175 l27 57 3 395 c4 463 0 500 -61 592 -48 71 -131 131 -208 147 -73 16 -850
13 -909 -3z m808 -693 l2 -333 -345 0 -345 0 0 335 0 335 343 -2 342 -3 3
-332z"/>
<path d="M2000 1150 l0 -990 185 0 185 0 2 282 3 283 388 2 c262 1 401 6 425
14 100 31 194 123 229 221 16 48 18 91 18 478 l0 425 -27 57 c-35 76 -107 151
-177 185 l-56 28 -587 3 -588 3 0 -991z m1060 285 l0 -335 -345 0 -345 0 0
328 c0 181 3 332 7 335 3 4 159 7 345 7 l338 0 0 -335z"/>
<path d="M4720 1435 l0 -704 181 -3 c99 -2 183 -1 185 1 2 2 4 321 4 708 l0
703 -185 0 -185 0 0 -705z"/>
<path d="M5280 1435 c0 -463 3 -705 10 -705 6 0 90 -1 188 -1 l177 0 3 520 2
521 230 0 230 0 0 -518 c0 -285 2 -521 4 -523 2 -2 88 -3 190 -1 l186 3 0 519
0 520 235 0 235 0 2 -521 3 -521 180 1 180 0 0 578 0 578 -30 58 c-33 67 -102
133 -172 168 l-48 24 -902 3 -903 3 0 -706z"/>
<path d="M7672 1438 l3 -703 178 -5 c97 -3 182 -4 187 -2 6 2 10 255 10 708
l0 704 -190 0 -190 0 2 -702z"/>
</g>
</svg>
